<svg width="39" height="38" viewBox="0 0 39 38" fill="none" xmlns="http://www.w3.org/2000/svg">
<path d="M0 19C0 8.50659 8.50659 0 19 0H20C30.4934 0 39 8.50659 39 19V19C39 29.4934 30.4934 38 20 38H19C8.50659 38 0 29.4934 0 19V19Z" fill="#FDFDFD"/>
<path d="M13.517 27V9.54545H20.5057C21.7898 9.54545 22.8608 9.7358 23.7188 10.1165C24.5767 10.4972 25.2216 11.0256 25.6534 11.7017C26.0852 12.3722 26.3011 13.1449 26.3011 14.0199C26.3011 14.7017 26.1648 15.3011 25.892 15.8182C25.6193 16.3295 25.2443 16.75 24.767 17.0795C24.2955 17.4034 23.7557 17.6335 23.1477 17.7699V17.9403C23.8125 17.9687 24.4347 18.1562 25.0142 18.5028C25.5994 18.8494 26.0739 19.3352 26.4375 19.9602C26.8011 20.5795 26.983 21.3182 26.983 22.1761C26.983 23.1023 26.7528 23.929 26.2926 24.6562C25.8381 25.3778 25.1648 25.9489 24.2727 26.3693C23.3807 26.7898 22.2813 27 20.9744 27H13.517ZM17.2074 23.983H20.2159C21.2443 23.983 21.9943 23.7869 22.4659 23.3949C22.9375 22.9972 23.1733 22.4687 23.1733 21.8097C23.1733 21.3267 23.0568 20.9006 22.8239 20.5312C22.5909 20.1619 22.2585 19.8722 21.8267 19.6619C21.4006 19.4517 20.892 19.3466 20.3011 19.3466H17.2074V23.983ZM17.2074 16.8494H19.9432C20.4489 16.8494 20.8977 16.7614 21.2898 16.5852C21.6875 16.4034 22 16.1477 22.2273 15.8182C22.4602 15.4886 22.5767 15.0938 22.5767 14.6335C22.5767 14.0028 22.3523 13.4943 21.9034 13.108C21.4602 12.7216 20.8295 12.5284 20.0114 12.5284H17.2074V16.8494Z" fill="black"/>
</svg>
